<svg width="180" height="180" viewBox="0 0 24 24" fill="none" xmlns="http://www.w3.org/2000/svg">
  <defs>
    <radialGradient id="bg" cx="50%" cy="38%" r="70%">
      <stop offset="0%" stop-color="#1E1E1E"/>
      <stop offset="100%" stop-color="#080808"/>
    </radialGradient>
  </defs>

  <rect width="24" height="24" fill="url(#bg)"/>

  <g stroke="white" stroke-width="1.1" stroke-linecap="round" stroke-linejoin="round">
    <path d="M17.596 12.768a2 2 0 1 0 2.829-2.829l-1.768-1.767a2 2 0 0 0 2.828-2.829l-2.828-2.828a2 2 0 0 0-2.829 2.828l-1.767-1.768a2 2 0 1 0-2.829 2.829z"/>
    <path d="m2.5 21.5 1.4-1.4"/>
    <path d="m20.1 3.9 1.4-1.4"/>
    <path d="M5.343 21.485a2 2 0 1 0 2.829-2.828l1.767 1.768a2 2 0 1 0 2.829-2.829l-6.364-6.364a2 2 0 1 0-2.829 2.829l1.768 1.767a2 2 0 0 0-2.828 2.829z"/>
    <path d="m9.6 14.4 4.8-4.8"/>
  </g>
</svg>
